<!DOCTYPE svg PUBLIC "-//W3C//DTD SVG 1.1//EN" "http://www.w3.org/Graphics/SVG/1.1/DTD/svg11.dtd">
<!-- Uploaded to: SVG Repo, www.svgrepo.com, Transformed by: SVG Repo Mixer Tools -->
<svg width="800px" height="800px" viewBox="-2.4 -2.4 28.80 28.80" xmlns="http://www.w3.org/2000/svg" fill="#000000" transform="rotate(-45)" stroke="#000000" stroke-width="0.00024000000000000003">
<g id="SVGRepo_bgCarrier" stroke-width="0"/>
<g id="SVGRepo_tracerCarrier" stroke-linecap="round" stroke-linejoin="round" stroke="#CCCCCC" stroke-width="0.048"/>
<g id="SVGRepo_iconCarrier"> <g> <path fill="none" d="M0 0h24v24H0z"/> <path d="M2.05 13h5.477a17.9 17.9 0 0 0 2.925 8.88A10.005 10.005 0 0 1 2.05 13zm0-2a10.005 10.005 0 0 1 8.402-8.88A17.9 17.9 0 0 0 7.527 11H2.05zm19.9 0h-5.477a17.9 17.9 0 0 0-2.925-8.88A10.005 10.005 0 0 1 21.95 11zm0 2a10.005 10.005 0 0 1-8.402 8.88A17.9 17.9 0 0 0 16.473 13h5.478zM9.53 13h4.94A15.908 15.908 0 0 1 12 20.592 15.908 15.908 0 0 1 9.53 13zm0-2A15.908 15.908 0 0 1 12 3.408 15.908 15.908 0 0 1 14.47 11H9.53z"/> </g> </g>
</svg>